<mxfile host="app.diagrams.net" agent="Mozilla/5.0 (Windows NT 10.0; Win64; x64) AppleWebKit/537.36 (KHTML, like Gecko) Chrome/137.0.0.0 Safari/537.36" version="27.1.6">
  <diagram name="Page-1" id="16e2658f-23c8-b752-8be9-c03fbebb8bbe">
    <mxGraphModel dx="1048" dy="2242" grid="1" gridSize="10" guides="1" tooltips="1" connect="1" arrows="1" fold="1" page="1" pageScale="1" pageWidth="1100" pageHeight="850" background="none" math="0" shadow="0">
      <root>
        <mxCell id="0" />
        <mxCell id="1" parent="0" />
        <mxCell id="ZxSBbp-IphkqUdOfR0Vp-554" value="" style="rounded=0;whiteSpace=wrap;html=1;" vertex="1" parent="1">
          <mxGeometry x="80" y="-40" width="760" height="450" as="geometry" />
        </mxCell>
        <mxCell id="ZxSBbp-IphkqUdOfR0Vp-555" value="" style="endArrow=none;html=1;rounded=0;" edge="1" parent="1">
          <mxGeometry width="50" height="50" relative="1" as="geometry">
            <mxPoint x="170" y="19.52000000000001" as="sourcePoint" />
            <mxPoint x="170" y="-20.480000000000004" as="targetPoint" />
          </mxGeometry>
        </mxCell>
        <mxCell id="ZxSBbp-IphkqUdOfR0Vp-556" value="" style="endArrow=none;html=1;rounded=0;" edge="1" parent="1">
          <mxGeometry width="50" height="50" relative="1" as="geometry">
            <mxPoint x="189.86" y="19.52000000000001" as="sourcePoint" />
            <mxPoint x="189.86" y="-20.480000000000004" as="targetPoint" />
          </mxGeometry>
        </mxCell>
        <mxCell id="ZxSBbp-IphkqUdOfR0Vp-557" value="" style="endArrow=none;html=1;rounded=0;" edge="1" parent="1">
          <mxGeometry width="50" height="50" relative="1" as="geometry">
            <mxPoint x="170" y="-20.480000000000004" as="sourcePoint" />
            <mxPoint x="190" y="-20.480000000000004" as="targetPoint" />
          </mxGeometry>
        </mxCell>
        <mxCell id="ZxSBbp-IphkqUdOfR0Vp-558" value="" style="endArrow=none;html=1;rounded=0;" edge="1" parent="1">
          <mxGeometry width="50" height="50" relative="1" as="geometry">
            <mxPoint x="190" y="19.52000000000001" as="sourcePoint" />
            <mxPoint x="210" y="19.52000000000001" as="targetPoint" />
          </mxGeometry>
        </mxCell>
        <mxCell id="ZxSBbp-IphkqUdOfR0Vp-559" value="" style="endArrow=none;html=1;rounded=0;" edge="1" parent="1">
          <mxGeometry width="50" height="50" relative="1" as="geometry">
            <mxPoint x="210" y="19.52000000000001" as="sourcePoint" />
            <mxPoint x="210" y="-20.480000000000004" as="targetPoint" />
          </mxGeometry>
        </mxCell>
        <mxCell id="ZxSBbp-IphkqUdOfR0Vp-560" value="" style="endArrow=none;html=1;rounded=0;" edge="1" parent="1">
          <mxGeometry width="50" height="50" relative="1" as="geometry">
            <mxPoint x="229.86" y="19.52000000000001" as="sourcePoint" />
            <mxPoint x="229.86" y="-20.480000000000004" as="targetPoint" />
          </mxGeometry>
        </mxCell>
        <mxCell id="ZxSBbp-IphkqUdOfR0Vp-561" value="" style="endArrow=none;html=1;rounded=0;" edge="1" parent="1">
          <mxGeometry width="50" height="50" relative="1" as="geometry">
            <mxPoint x="210" y="-20.480000000000004" as="sourcePoint" />
            <mxPoint x="230" y="-20.480000000000004" as="targetPoint" />
          </mxGeometry>
        </mxCell>
        <mxCell id="ZxSBbp-IphkqUdOfR0Vp-562" value="" style="endArrow=none;html=1;rounded=0;" edge="1" parent="1">
          <mxGeometry width="50" height="50" relative="1" as="geometry">
            <mxPoint x="230" y="19.52000000000001" as="sourcePoint" />
            <mxPoint x="250" y="19.52000000000001" as="targetPoint" />
          </mxGeometry>
        </mxCell>
        <mxCell id="ZxSBbp-IphkqUdOfR0Vp-563" value="" style="endArrow=none;html=1;rounded=0;" edge="1" parent="1">
          <mxGeometry width="50" height="50" relative="1" as="geometry">
            <mxPoint x="250" y="19.52000000000001" as="sourcePoint" />
            <mxPoint x="250" y="-20.480000000000004" as="targetPoint" />
          </mxGeometry>
        </mxCell>
        <mxCell id="ZxSBbp-IphkqUdOfR0Vp-564" value="" style="endArrow=none;html=1;rounded=0;" edge="1" parent="1">
          <mxGeometry width="50" height="50" relative="1" as="geometry">
            <mxPoint x="269.86" y="19.52000000000001" as="sourcePoint" />
            <mxPoint x="269.86" y="-20.480000000000004" as="targetPoint" />
          </mxGeometry>
        </mxCell>
        <mxCell id="ZxSBbp-IphkqUdOfR0Vp-565" value="" style="endArrow=none;html=1;rounded=0;" edge="1" parent="1">
          <mxGeometry width="50" height="50" relative="1" as="geometry">
            <mxPoint x="250" y="-20.480000000000004" as="sourcePoint" />
            <mxPoint x="270" y="-20.480000000000004" as="targetPoint" />
          </mxGeometry>
        </mxCell>
        <mxCell id="ZxSBbp-IphkqUdOfR0Vp-566" value="" style="endArrow=none;html=1;rounded=0;" edge="1" parent="1">
          <mxGeometry width="50" height="50" relative="1" as="geometry">
            <mxPoint x="270" y="19.52000000000001" as="sourcePoint" />
            <mxPoint x="290" y="19.52000000000001" as="targetPoint" />
          </mxGeometry>
        </mxCell>
        <mxCell id="ZxSBbp-IphkqUdOfR0Vp-567" value="" style="endArrow=none;html=1;rounded=0;" edge="1" parent="1">
          <mxGeometry width="50" height="50" relative="1" as="geometry">
            <mxPoint x="290" y="19.52000000000001" as="sourcePoint" />
            <mxPoint x="290" y="-20.480000000000004" as="targetPoint" />
          </mxGeometry>
        </mxCell>
        <mxCell id="ZxSBbp-IphkqUdOfR0Vp-568" value="" style="endArrow=none;html=1;rounded=0;" edge="1" parent="1">
          <mxGeometry width="50" height="50" relative="1" as="geometry">
            <mxPoint x="309.86" y="19.52000000000001" as="sourcePoint" />
            <mxPoint x="309.86" y="-20.480000000000004" as="targetPoint" />
          </mxGeometry>
        </mxCell>
        <mxCell id="ZxSBbp-IphkqUdOfR0Vp-569" value="" style="endArrow=none;html=1;rounded=0;" edge="1" parent="1">
          <mxGeometry width="50" height="50" relative="1" as="geometry">
            <mxPoint x="290" y="-20.480000000000004" as="sourcePoint" />
            <mxPoint x="310" y="-20.480000000000004" as="targetPoint" />
          </mxGeometry>
        </mxCell>
        <mxCell id="ZxSBbp-IphkqUdOfR0Vp-570" value="" style="endArrow=none;html=1;rounded=0;" edge="1" parent="1">
          <mxGeometry width="50" height="50" relative="1" as="geometry">
            <mxPoint x="310" y="19.52000000000001" as="sourcePoint" />
            <mxPoint x="330" y="19.52000000000001" as="targetPoint" />
          </mxGeometry>
        </mxCell>
        <mxCell id="ZxSBbp-IphkqUdOfR0Vp-571" value="" style="endArrow=none;html=1;rounded=0;" edge="1" parent="1">
          <mxGeometry width="50" height="50" relative="1" as="geometry">
            <mxPoint x="330" y="19.52000000000001" as="sourcePoint" />
            <mxPoint x="330" y="-20.480000000000004" as="targetPoint" />
          </mxGeometry>
        </mxCell>
        <mxCell id="ZxSBbp-IphkqUdOfR0Vp-572" value="" style="endArrow=none;html=1;rounded=0;" edge="1" parent="1">
          <mxGeometry width="50" height="50" relative="1" as="geometry">
            <mxPoint x="349.86" y="19.52000000000001" as="sourcePoint" />
            <mxPoint x="349.86" y="-20.480000000000004" as="targetPoint" />
          </mxGeometry>
        </mxCell>
        <mxCell id="ZxSBbp-IphkqUdOfR0Vp-573" value="" style="endArrow=none;html=1;rounded=0;" edge="1" parent="1">
          <mxGeometry width="50" height="50" relative="1" as="geometry">
            <mxPoint x="330" y="-20.480000000000004" as="sourcePoint" />
            <mxPoint x="350" y="-20.480000000000004" as="targetPoint" />
          </mxGeometry>
        </mxCell>
        <mxCell id="ZxSBbp-IphkqUdOfR0Vp-574" value="" style="endArrow=none;html=1;rounded=0;" edge="1" parent="1">
          <mxGeometry width="50" height="50" relative="1" as="geometry">
            <mxPoint x="350" y="19.52000000000001" as="sourcePoint" />
            <mxPoint x="370" y="19.52000000000001" as="targetPoint" />
          </mxGeometry>
        </mxCell>
        <mxCell id="ZxSBbp-IphkqUdOfR0Vp-575" value="" style="endArrow=none;html=1;rounded=0;" edge="1" parent="1">
          <mxGeometry width="50" height="50" relative="1" as="geometry">
            <mxPoint x="370" y="19.52000000000001" as="sourcePoint" />
            <mxPoint x="370" y="-20.480000000000004" as="targetPoint" />
          </mxGeometry>
        </mxCell>
        <mxCell id="ZxSBbp-IphkqUdOfR0Vp-576" value="" style="endArrow=none;html=1;rounded=0;" edge="1" parent="1">
          <mxGeometry width="50" height="50" relative="1" as="geometry">
            <mxPoint x="389.86" y="19.52000000000001" as="sourcePoint" />
            <mxPoint x="389.86" y="-20.480000000000004" as="targetPoint" />
          </mxGeometry>
        </mxCell>
        <mxCell id="ZxSBbp-IphkqUdOfR0Vp-577" value="" style="endArrow=none;html=1;rounded=0;" edge="1" parent="1">
          <mxGeometry width="50" height="50" relative="1" as="geometry">
            <mxPoint x="370" y="-20.480000000000004" as="sourcePoint" />
            <mxPoint x="390" y="-20.480000000000004" as="targetPoint" />
          </mxGeometry>
        </mxCell>
        <mxCell id="ZxSBbp-IphkqUdOfR0Vp-578" value="" style="endArrow=none;html=1;rounded=0;" edge="1" parent="1">
          <mxGeometry width="50" height="50" relative="1" as="geometry">
            <mxPoint x="390" y="19.52000000000001" as="sourcePoint" />
            <mxPoint x="410" y="19.52000000000001" as="targetPoint" />
          </mxGeometry>
        </mxCell>
        <mxCell id="ZxSBbp-IphkqUdOfR0Vp-579" value="" style="endArrow=none;html=1;rounded=0;" edge="1" parent="1">
          <mxGeometry width="50" height="50" relative="1" as="geometry">
            <mxPoint x="410" y="19.52000000000001" as="sourcePoint" />
            <mxPoint x="410" y="-20.480000000000004" as="targetPoint" />
          </mxGeometry>
        </mxCell>
        <mxCell id="ZxSBbp-IphkqUdOfR0Vp-580" value="" style="endArrow=none;html=1;rounded=0;" edge="1" parent="1">
          <mxGeometry width="50" height="50" relative="1" as="geometry">
            <mxPoint x="429.86" y="19.52000000000001" as="sourcePoint" />
            <mxPoint x="429.86" y="-20.480000000000004" as="targetPoint" />
          </mxGeometry>
        </mxCell>
        <mxCell id="ZxSBbp-IphkqUdOfR0Vp-581" value="" style="endArrow=none;html=1;rounded=0;" edge="1" parent="1">
          <mxGeometry width="50" height="50" relative="1" as="geometry">
            <mxPoint x="410" y="-20.480000000000004" as="sourcePoint" />
            <mxPoint x="430" y="-20.480000000000004" as="targetPoint" />
          </mxGeometry>
        </mxCell>
        <mxCell id="ZxSBbp-IphkqUdOfR0Vp-582" value="" style="endArrow=none;html=1;rounded=0;" edge="1" parent="1">
          <mxGeometry width="50" height="50" relative="1" as="geometry">
            <mxPoint x="430" y="19.52000000000001" as="sourcePoint" />
            <mxPoint x="450" y="19.52000000000001" as="targetPoint" />
          </mxGeometry>
        </mxCell>
        <mxCell id="ZxSBbp-IphkqUdOfR0Vp-583" value="" style="endArrow=none;html=1;rounded=0;" edge="1" parent="1">
          <mxGeometry width="50" height="50" relative="1" as="geometry">
            <mxPoint x="450" y="19.52000000000001" as="sourcePoint" />
            <mxPoint x="450" y="-20.480000000000004" as="targetPoint" />
          </mxGeometry>
        </mxCell>
        <mxCell id="ZxSBbp-IphkqUdOfR0Vp-584" value="" style="endArrow=none;html=1;rounded=0;" edge="1" parent="1">
          <mxGeometry width="50" height="50" relative="1" as="geometry">
            <mxPoint x="469.86" y="19.52000000000001" as="sourcePoint" />
            <mxPoint x="469.86" y="-20.480000000000004" as="targetPoint" />
          </mxGeometry>
        </mxCell>
        <mxCell id="ZxSBbp-IphkqUdOfR0Vp-585" value="" style="endArrow=none;html=1;rounded=0;" edge="1" parent="1">
          <mxGeometry width="50" height="50" relative="1" as="geometry">
            <mxPoint x="450" y="-20.480000000000004" as="sourcePoint" />
            <mxPoint x="470" y="-20.480000000000004" as="targetPoint" />
          </mxGeometry>
        </mxCell>
        <mxCell id="ZxSBbp-IphkqUdOfR0Vp-586" value="" style="endArrow=none;html=1;rounded=0;" edge="1" parent="1">
          <mxGeometry width="50" height="50" relative="1" as="geometry">
            <mxPoint x="470" y="19.52000000000001" as="sourcePoint" />
            <mxPoint x="490" y="19.52000000000001" as="targetPoint" />
          </mxGeometry>
        </mxCell>
        <mxCell id="ZxSBbp-IphkqUdOfR0Vp-587" value="" style="endArrow=none;html=1;rounded=0;" edge="1" parent="1">
          <mxGeometry width="50" height="50" relative="1" as="geometry">
            <mxPoint x="170" y="100" as="sourcePoint" />
            <mxPoint x="170" y="60" as="targetPoint" />
          </mxGeometry>
        </mxCell>
        <mxCell id="ZxSBbp-IphkqUdOfR0Vp-588" value="" style="endArrow=none;html=1;rounded=0;" edge="1" parent="1">
          <mxGeometry width="50" height="50" relative="1" as="geometry">
            <mxPoint x="210" y="100" as="sourcePoint" />
            <mxPoint x="210" y="60" as="targetPoint" />
          </mxGeometry>
        </mxCell>
        <mxCell id="ZxSBbp-IphkqUdOfR0Vp-589" value="" style="endArrow=none;html=1;rounded=0;" edge="1" parent="1">
          <mxGeometry width="50" height="50" relative="1" as="geometry">
            <mxPoint x="170" y="60" as="sourcePoint" />
            <mxPoint x="210" y="60" as="targetPoint" />
          </mxGeometry>
        </mxCell>
        <mxCell id="ZxSBbp-IphkqUdOfR0Vp-590" value="" style="endArrow=none;html=1;rounded=0;" edge="1" parent="1">
          <mxGeometry width="50" height="50" relative="1" as="geometry">
            <mxPoint x="210" y="100" as="sourcePoint" />
            <mxPoint x="250" y="100" as="targetPoint" />
          </mxGeometry>
        </mxCell>
        <mxCell id="ZxSBbp-IphkqUdOfR0Vp-591" value="" style="endArrow=none;html=1;rounded=0;" edge="1" parent="1">
          <mxGeometry width="50" height="50" relative="1" as="geometry">
            <mxPoint x="250" y="100" as="sourcePoint" />
            <mxPoint x="250" y="60" as="targetPoint" />
          </mxGeometry>
        </mxCell>
        <mxCell id="ZxSBbp-IphkqUdOfR0Vp-592" value="" style="endArrow=none;html=1;rounded=0;" edge="1" parent="1">
          <mxGeometry width="50" height="50" relative="1" as="geometry">
            <mxPoint x="290" y="100" as="sourcePoint" />
            <mxPoint x="290" y="60" as="targetPoint" />
          </mxGeometry>
        </mxCell>
        <mxCell id="ZxSBbp-IphkqUdOfR0Vp-593" value="" style="endArrow=none;html=1;rounded=0;" edge="1" parent="1">
          <mxGeometry width="50" height="50" relative="1" as="geometry">
            <mxPoint x="250" y="60" as="sourcePoint" />
            <mxPoint x="290" y="60" as="targetPoint" />
          </mxGeometry>
        </mxCell>
        <mxCell id="ZxSBbp-IphkqUdOfR0Vp-594" value="" style="endArrow=none;html=1;rounded=0;" edge="1" parent="1">
          <mxGeometry width="50" height="50" relative="1" as="geometry">
            <mxPoint x="290" y="100" as="sourcePoint" />
            <mxPoint x="330" y="100" as="targetPoint" />
          </mxGeometry>
        </mxCell>
        <mxCell id="ZxSBbp-IphkqUdOfR0Vp-595" value="" style="endArrow=none;html=1;rounded=0;" edge="1" parent="1">
          <mxGeometry width="50" height="50" relative="1" as="geometry">
            <mxPoint x="330" y="100" as="sourcePoint" />
            <mxPoint x="330" y="60" as="targetPoint" />
          </mxGeometry>
        </mxCell>
        <mxCell id="ZxSBbp-IphkqUdOfR0Vp-596" value="" style="endArrow=none;html=1;rounded=0;" edge="1" parent="1">
          <mxGeometry width="50" height="50" relative="1" as="geometry">
            <mxPoint x="370" y="100" as="sourcePoint" />
            <mxPoint x="370" y="60" as="targetPoint" />
          </mxGeometry>
        </mxCell>
        <mxCell id="ZxSBbp-IphkqUdOfR0Vp-597" value="" style="endArrow=none;html=1;rounded=0;" edge="1" parent="1">
          <mxGeometry width="50" height="50" relative="1" as="geometry">
            <mxPoint x="330" y="60" as="sourcePoint" />
            <mxPoint x="370" y="60" as="targetPoint" />
          </mxGeometry>
        </mxCell>
        <mxCell id="ZxSBbp-IphkqUdOfR0Vp-598" value="" style="endArrow=none;html=1;rounded=0;" edge="1" parent="1">
          <mxGeometry width="50" height="50" relative="1" as="geometry">
            <mxPoint x="370" y="100" as="sourcePoint" />
            <mxPoint x="410" y="100" as="targetPoint" />
          </mxGeometry>
        </mxCell>
        <mxCell id="ZxSBbp-IphkqUdOfR0Vp-599" value="" style="endArrow=none;html=1;rounded=0;" edge="1" parent="1">
          <mxGeometry width="50" height="50" relative="1" as="geometry">
            <mxPoint x="410" y="100" as="sourcePoint" />
            <mxPoint x="410" y="60" as="targetPoint" />
          </mxGeometry>
        </mxCell>
        <mxCell id="ZxSBbp-IphkqUdOfR0Vp-600" value="" style="endArrow=none;html=1;rounded=0;" edge="1" parent="1">
          <mxGeometry width="50" height="50" relative="1" as="geometry">
            <mxPoint x="450" y="100" as="sourcePoint" />
            <mxPoint x="450" y="60" as="targetPoint" />
          </mxGeometry>
        </mxCell>
        <mxCell id="ZxSBbp-IphkqUdOfR0Vp-601" value="" style="endArrow=none;html=1;rounded=0;" edge="1" parent="1">
          <mxGeometry width="50" height="50" relative="1" as="geometry">
            <mxPoint x="410" y="60" as="sourcePoint" />
            <mxPoint x="450" y="60" as="targetPoint" />
          </mxGeometry>
        </mxCell>
        <mxCell id="ZxSBbp-IphkqUdOfR0Vp-602" value="" style="endArrow=none;html=1;rounded=0;" edge="1" parent="1">
          <mxGeometry width="50" height="50" relative="1" as="geometry">
            <mxPoint x="450" y="100" as="sourcePoint" />
            <mxPoint x="490" y="100" as="targetPoint" />
          </mxGeometry>
        </mxCell>
        <mxCell id="ZxSBbp-IphkqUdOfR0Vp-603" value="" style="endArrow=none;html=1;rounded=0;" edge="1" parent="1">
          <mxGeometry width="50" height="50" relative="1" as="geometry">
            <mxPoint x="490" y="100" as="sourcePoint" />
            <mxPoint x="490" y="60" as="targetPoint" />
          </mxGeometry>
        </mxCell>
        <mxCell id="ZxSBbp-IphkqUdOfR0Vp-604" value="" style="endArrow=none;html=1;rounded=0;" edge="1" parent="1">
          <mxGeometry width="50" height="50" relative="1" as="geometry">
            <mxPoint x="530" y="100" as="sourcePoint" />
            <mxPoint x="530" y="60" as="targetPoint" />
          </mxGeometry>
        </mxCell>
        <mxCell id="ZxSBbp-IphkqUdOfR0Vp-605" value="" style="endArrow=none;html=1;rounded=0;" edge="1" parent="1">
          <mxGeometry width="50" height="50" relative="1" as="geometry">
            <mxPoint x="490" y="60" as="sourcePoint" />
            <mxPoint x="530" y="60" as="targetPoint" />
          </mxGeometry>
        </mxCell>
        <mxCell id="ZxSBbp-IphkqUdOfR0Vp-606" value="" style="endArrow=none;html=1;rounded=0;" edge="1" parent="1">
          <mxGeometry width="50" height="50" relative="1" as="geometry">
            <mxPoint x="530" y="100" as="sourcePoint" />
            <mxPoint x="570" y="100" as="targetPoint" />
          </mxGeometry>
        </mxCell>
        <mxCell id="ZxSBbp-IphkqUdOfR0Vp-607" value="" style="endArrow=none;html=1;rounded=0;" edge="1" parent="1">
          <mxGeometry width="50" height="50" relative="1" as="geometry">
            <mxPoint x="570" y="100" as="sourcePoint" />
            <mxPoint x="570" y="60" as="targetPoint" />
          </mxGeometry>
        </mxCell>
        <mxCell id="ZxSBbp-IphkqUdOfR0Vp-608" value="" style="endArrow=none;html=1;rounded=0;" edge="1" parent="1">
          <mxGeometry width="50" height="50" relative="1" as="geometry">
            <mxPoint x="610" y="100" as="sourcePoint" />
            <mxPoint x="610" y="60" as="targetPoint" />
          </mxGeometry>
        </mxCell>
        <mxCell id="ZxSBbp-IphkqUdOfR0Vp-609" value="" style="endArrow=none;html=1;rounded=0;" edge="1" parent="1">
          <mxGeometry width="50" height="50" relative="1" as="geometry">
            <mxPoint x="570" y="60" as="sourcePoint" />
            <mxPoint x="610" y="60" as="targetPoint" />
          </mxGeometry>
        </mxCell>
        <mxCell id="ZxSBbp-IphkqUdOfR0Vp-610" value="" style="endArrow=none;html=1;rounded=0;" edge="1" parent="1">
          <mxGeometry width="50" height="50" relative="1" as="geometry">
            <mxPoint x="610" y="100" as="sourcePoint" />
            <mxPoint x="650" y="100" as="targetPoint" />
          </mxGeometry>
        </mxCell>
        <mxCell id="ZxSBbp-IphkqUdOfR0Vp-611" value="" style="endArrow=none;html=1;rounded=0;" edge="1" parent="1">
          <mxGeometry width="50" height="50" relative="1" as="geometry">
            <mxPoint x="650" y="100" as="sourcePoint" />
            <mxPoint x="650" y="60" as="targetPoint" />
          </mxGeometry>
        </mxCell>
        <mxCell id="ZxSBbp-IphkqUdOfR0Vp-612" value="" style="endArrow=none;html=1;rounded=0;" edge="1" parent="1">
          <mxGeometry width="50" height="50" relative="1" as="geometry">
            <mxPoint x="690" y="100" as="sourcePoint" />
            <mxPoint x="690" y="60" as="targetPoint" />
          </mxGeometry>
        </mxCell>
        <mxCell id="ZxSBbp-IphkqUdOfR0Vp-613" value="" style="endArrow=none;html=1;rounded=0;" edge="1" parent="1">
          <mxGeometry width="50" height="50" relative="1" as="geometry">
            <mxPoint x="650" y="60" as="sourcePoint" />
            <mxPoint x="690" y="60" as="targetPoint" />
          </mxGeometry>
        </mxCell>
        <mxCell id="ZxSBbp-IphkqUdOfR0Vp-614" value="" style="endArrow=none;html=1;rounded=0;" edge="1" parent="1">
          <mxGeometry width="50" height="50" relative="1" as="geometry">
            <mxPoint x="690" y="100" as="sourcePoint" />
            <mxPoint x="730" y="100" as="targetPoint" />
          </mxGeometry>
        </mxCell>
        <mxCell id="ZxSBbp-IphkqUdOfR0Vp-615" value="" style="endArrow=none;html=1;rounded=0;" edge="1" parent="1">
          <mxGeometry width="50" height="50" relative="1" as="geometry">
            <mxPoint x="730" y="100" as="sourcePoint" />
            <mxPoint x="730" y="60" as="targetPoint" />
          </mxGeometry>
        </mxCell>
        <mxCell id="ZxSBbp-IphkqUdOfR0Vp-616" value="" style="endArrow=none;html=1;rounded=0;" edge="1" parent="1">
          <mxGeometry width="50" height="50" relative="1" as="geometry">
            <mxPoint x="770" y="100" as="sourcePoint" />
            <mxPoint x="770" y="60" as="targetPoint" />
          </mxGeometry>
        </mxCell>
        <mxCell id="ZxSBbp-IphkqUdOfR0Vp-617" value="" style="endArrow=none;html=1;rounded=0;" edge="1" parent="1">
          <mxGeometry width="50" height="50" relative="1" as="geometry">
            <mxPoint x="730" y="60" as="sourcePoint" />
            <mxPoint x="770" y="60" as="targetPoint" />
          </mxGeometry>
        </mxCell>
        <mxCell id="ZxSBbp-IphkqUdOfR0Vp-618" value="" style="endArrow=none;html=1;rounded=0;" edge="1" parent="1">
          <mxGeometry width="50" height="50" relative="1" as="geometry">
            <mxPoint x="770" y="100" as="sourcePoint" />
            <mxPoint x="810" y="100" as="targetPoint" />
          </mxGeometry>
        </mxCell>
        <mxCell id="ZxSBbp-IphkqUdOfR0Vp-619" value="" style="endArrow=none;html=1;rounded=0;" edge="1" parent="1">
          <mxGeometry width="50" height="50" relative="1" as="geometry">
            <mxPoint x="490" y="19.52000000000001" as="sourcePoint" />
            <mxPoint x="490" y="-20.480000000000004" as="targetPoint" />
          </mxGeometry>
        </mxCell>
        <mxCell id="ZxSBbp-IphkqUdOfR0Vp-620" value="" style="endArrow=none;html=1;rounded=0;" edge="1" parent="1">
          <mxGeometry width="50" height="50" relative="1" as="geometry">
            <mxPoint x="509.86" y="19.52000000000001" as="sourcePoint" />
            <mxPoint x="509.86" y="-20.480000000000004" as="targetPoint" />
          </mxGeometry>
        </mxCell>
        <mxCell id="ZxSBbp-IphkqUdOfR0Vp-621" value="" style="endArrow=none;html=1;rounded=0;" edge="1" parent="1">
          <mxGeometry width="50" height="50" relative="1" as="geometry">
            <mxPoint x="490" y="-20.480000000000004" as="sourcePoint" />
            <mxPoint x="510" y="-20.480000000000004" as="targetPoint" />
          </mxGeometry>
        </mxCell>
        <mxCell id="ZxSBbp-IphkqUdOfR0Vp-622" value="" style="endArrow=none;html=1;rounded=0;" edge="1" parent="1">
          <mxGeometry width="50" height="50" relative="1" as="geometry">
            <mxPoint x="510" y="19.52000000000001" as="sourcePoint" />
            <mxPoint x="530" y="19.52000000000001" as="targetPoint" />
          </mxGeometry>
        </mxCell>
        <mxCell id="ZxSBbp-IphkqUdOfR0Vp-623" value="" style="endArrow=none;html=1;rounded=0;" edge="1" parent="1">
          <mxGeometry width="50" height="50" relative="1" as="geometry">
            <mxPoint x="530" y="19.52000000000001" as="sourcePoint" />
            <mxPoint x="530" y="-20.480000000000004" as="targetPoint" />
          </mxGeometry>
        </mxCell>
        <mxCell id="ZxSBbp-IphkqUdOfR0Vp-624" value="" style="endArrow=none;html=1;rounded=0;" edge="1" parent="1">
          <mxGeometry width="50" height="50" relative="1" as="geometry">
            <mxPoint x="549.86" y="19.52000000000001" as="sourcePoint" />
            <mxPoint x="549.86" y="-20.480000000000004" as="targetPoint" />
          </mxGeometry>
        </mxCell>
        <mxCell id="ZxSBbp-IphkqUdOfR0Vp-625" value="" style="endArrow=none;html=1;rounded=0;" edge="1" parent="1">
          <mxGeometry width="50" height="50" relative="1" as="geometry">
            <mxPoint x="530" y="-20.480000000000004" as="sourcePoint" />
            <mxPoint x="550" y="-20.480000000000004" as="targetPoint" />
          </mxGeometry>
        </mxCell>
        <mxCell id="ZxSBbp-IphkqUdOfR0Vp-626" value="" style="endArrow=none;html=1;rounded=0;" edge="1" parent="1">
          <mxGeometry width="50" height="50" relative="1" as="geometry">
            <mxPoint x="550" y="19.52000000000001" as="sourcePoint" />
            <mxPoint x="570" y="19.52000000000001" as="targetPoint" />
          </mxGeometry>
        </mxCell>
        <mxCell id="ZxSBbp-IphkqUdOfR0Vp-627" value="" style="endArrow=none;html=1;rounded=0;" edge="1" parent="1">
          <mxGeometry width="50" height="50" relative="1" as="geometry">
            <mxPoint x="570" y="19.52000000000001" as="sourcePoint" />
            <mxPoint x="570" y="-20.480000000000004" as="targetPoint" />
          </mxGeometry>
        </mxCell>
        <mxCell id="ZxSBbp-IphkqUdOfR0Vp-628" value="" style="endArrow=none;html=1;rounded=0;" edge="1" parent="1">
          <mxGeometry width="50" height="50" relative="1" as="geometry">
            <mxPoint x="589.86" y="19.52000000000001" as="sourcePoint" />
            <mxPoint x="589.86" y="-20.480000000000004" as="targetPoint" />
          </mxGeometry>
        </mxCell>
        <mxCell id="ZxSBbp-IphkqUdOfR0Vp-629" value="" style="endArrow=none;html=1;rounded=0;" edge="1" parent="1">
          <mxGeometry width="50" height="50" relative="1" as="geometry">
            <mxPoint x="570" y="-20.480000000000004" as="sourcePoint" />
            <mxPoint x="590" y="-20.480000000000004" as="targetPoint" />
          </mxGeometry>
        </mxCell>
        <mxCell id="ZxSBbp-IphkqUdOfR0Vp-630" value="" style="endArrow=none;html=1;rounded=0;" edge="1" parent="1">
          <mxGeometry width="50" height="50" relative="1" as="geometry">
            <mxPoint x="590" y="19.52000000000001" as="sourcePoint" />
            <mxPoint x="610" y="19.52000000000001" as="targetPoint" />
          </mxGeometry>
        </mxCell>
        <mxCell id="ZxSBbp-IphkqUdOfR0Vp-631" value="" style="endArrow=none;html=1;rounded=0;" edge="1" parent="1">
          <mxGeometry width="50" height="50" relative="1" as="geometry">
            <mxPoint x="610" y="19.52000000000001" as="sourcePoint" />
            <mxPoint x="610" y="-20.480000000000004" as="targetPoint" />
          </mxGeometry>
        </mxCell>
        <mxCell id="ZxSBbp-IphkqUdOfR0Vp-632" value="" style="endArrow=none;html=1;rounded=0;" edge="1" parent="1">
          <mxGeometry width="50" height="50" relative="1" as="geometry">
            <mxPoint x="629.86" y="19.52000000000001" as="sourcePoint" />
            <mxPoint x="629.86" y="-20.480000000000004" as="targetPoint" />
          </mxGeometry>
        </mxCell>
        <mxCell id="ZxSBbp-IphkqUdOfR0Vp-633" value="" style="endArrow=none;html=1;rounded=0;" edge="1" parent="1">
          <mxGeometry width="50" height="50" relative="1" as="geometry">
            <mxPoint x="610" y="-20.480000000000004" as="sourcePoint" />
            <mxPoint x="630" y="-20.480000000000004" as="targetPoint" />
          </mxGeometry>
        </mxCell>
        <mxCell id="ZxSBbp-IphkqUdOfR0Vp-634" value="" style="endArrow=none;html=1;rounded=0;" edge="1" parent="1">
          <mxGeometry width="50" height="50" relative="1" as="geometry">
            <mxPoint x="630" y="19.52000000000001" as="sourcePoint" />
            <mxPoint x="650" y="19.52000000000001" as="targetPoint" />
          </mxGeometry>
        </mxCell>
        <mxCell id="ZxSBbp-IphkqUdOfR0Vp-635" value="" style="endArrow=none;html=1;rounded=0;" edge="1" parent="1">
          <mxGeometry width="50" height="50" relative="1" as="geometry">
            <mxPoint x="650" y="19.52000000000001" as="sourcePoint" />
            <mxPoint x="650" y="-20.480000000000004" as="targetPoint" />
          </mxGeometry>
        </mxCell>
        <mxCell id="ZxSBbp-IphkqUdOfR0Vp-636" value="" style="endArrow=none;html=1;rounded=0;" edge="1" parent="1">
          <mxGeometry width="50" height="50" relative="1" as="geometry">
            <mxPoint x="669.86" y="19.52000000000001" as="sourcePoint" />
            <mxPoint x="669.86" y="-20.480000000000004" as="targetPoint" />
          </mxGeometry>
        </mxCell>
        <mxCell id="ZxSBbp-IphkqUdOfR0Vp-637" value="" style="endArrow=none;html=1;rounded=0;" edge="1" parent="1">
          <mxGeometry width="50" height="50" relative="1" as="geometry">
            <mxPoint x="650" y="-20.480000000000004" as="sourcePoint" />
            <mxPoint x="670" y="-20.480000000000004" as="targetPoint" />
          </mxGeometry>
        </mxCell>
        <mxCell id="ZxSBbp-IphkqUdOfR0Vp-638" value="" style="endArrow=none;html=1;rounded=0;" edge="1" parent="1">
          <mxGeometry width="50" height="50" relative="1" as="geometry">
            <mxPoint x="670" y="19.52000000000001" as="sourcePoint" />
            <mxPoint x="690" y="19.52000000000001" as="targetPoint" />
          </mxGeometry>
        </mxCell>
        <mxCell id="ZxSBbp-IphkqUdOfR0Vp-639" value="" style="endArrow=none;html=1;rounded=0;" edge="1" parent="1">
          <mxGeometry width="50" height="50" relative="1" as="geometry">
            <mxPoint x="690" y="19.52000000000001" as="sourcePoint" />
            <mxPoint x="690" y="-20.480000000000004" as="targetPoint" />
          </mxGeometry>
        </mxCell>
        <mxCell id="ZxSBbp-IphkqUdOfR0Vp-640" value="" style="endArrow=none;html=1;rounded=0;" edge="1" parent="1">
          <mxGeometry width="50" height="50" relative="1" as="geometry">
            <mxPoint x="709.86" y="19.52000000000001" as="sourcePoint" />
            <mxPoint x="709.86" y="-20.480000000000004" as="targetPoint" />
          </mxGeometry>
        </mxCell>
        <mxCell id="ZxSBbp-IphkqUdOfR0Vp-641" value="" style="endArrow=none;html=1;rounded=0;" edge="1" parent="1">
          <mxGeometry width="50" height="50" relative="1" as="geometry">
            <mxPoint x="690" y="-20.480000000000004" as="sourcePoint" />
            <mxPoint x="710" y="-20.480000000000004" as="targetPoint" />
          </mxGeometry>
        </mxCell>
        <mxCell id="ZxSBbp-IphkqUdOfR0Vp-642" value="" style="endArrow=none;html=1;rounded=0;" edge="1" parent="1">
          <mxGeometry width="50" height="50" relative="1" as="geometry">
            <mxPoint x="710" y="19.52000000000001" as="sourcePoint" />
            <mxPoint x="730" y="19.52000000000001" as="targetPoint" />
          </mxGeometry>
        </mxCell>
        <mxCell id="ZxSBbp-IphkqUdOfR0Vp-643" value="" style="endArrow=none;html=1;rounded=0;" edge="1" parent="1">
          <mxGeometry width="50" height="50" relative="1" as="geometry">
            <mxPoint x="730" y="19.52000000000001" as="sourcePoint" />
            <mxPoint x="730" y="-20.480000000000004" as="targetPoint" />
          </mxGeometry>
        </mxCell>
        <mxCell id="ZxSBbp-IphkqUdOfR0Vp-644" value="" style="endArrow=none;html=1;rounded=0;" edge="1" parent="1">
          <mxGeometry width="50" height="50" relative="1" as="geometry">
            <mxPoint x="749.86" y="19.52000000000001" as="sourcePoint" />
            <mxPoint x="749.86" y="-20.480000000000004" as="targetPoint" />
          </mxGeometry>
        </mxCell>
        <mxCell id="ZxSBbp-IphkqUdOfR0Vp-645" value="" style="endArrow=none;html=1;rounded=0;" edge="1" parent="1">
          <mxGeometry width="50" height="50" relative="1" as="geometry">
            <mxPoint x="730" y="-20.480000000000004" as="sourcePoint" />
            <mxPoint x="750" y="-20.480000000000004" as="targetPoint" />
          </mxGeometry>
        </mxCell>
        <mxCell id="ZxSBbp-IphkqUdOfR0Vp-646" value="" style="endArrow=none;html=1;rounded=0;" edge="1" parent="1">
          <mxGeometry width="50" height="50" relative="1" as="geometry">
            <mxPoint x="750" y="19.52000000000001" as="sourcePoint" />
            <mxPoint x="770" y="19.52000000000001" as="targetPoint" />
          </mxGeometry>
        </mxCell>
        <mxCell id="ZxSBbp-IphkqUdOfR0Vp-647" value="" style="endArrow=none;html=1;rounded=0;" edge="1" parent="1">
          <mxGeometry width="50" height="50" relative="1" as="geometry">
            <mxPoint x="770" y="19.52000000000001" as="sourcePoint" />
            <mxPoint x="770" y="-20.480000000000004" as="targetPoint" />
          </mxGeometry>
        </mxCell>
        <mxCell id="ZxSBbp-IphkqUdOfR0Vp-648" value="" style="endArrow=none;html=1;rounded=0;" edge="1" parent="1">
          <mxGeometry width="50" height="50" relative="1" as="geometry">
            <mxPoint x="789.86" y="19.52000000000001" as="sourcePoint" />
            <mxPoint x="789.86" y="-20.480000000000004" as="targetPoint" />
          </mxGeometry>
        </mxCell>
        <mxCell id="ZxSBbp-IphkqUdOfR0Vp-649" value="" style="endArrow=none;html=1;rounded=0;" edge="1" parent="1">
          <mxGeometry width="50" height="50" relative="1" as="geometry">
            <mxPoint x="770" y="-20.480000000000004" as="sourcePoint" />
            <mxPoint x="790" y="-20.480000000000004" as="targetPoint" />
          </mxGeometry>
        </mxCell>
        <mxCell id="ZxSBbp-IphkqUdOfR0Vp-650" value="" style="endArrow=none;html=1;rounded=0;" edge="1" parent="1">
          <mxGeometry width="50" height="50" relative="1" as="geometry">
            <mxPoint x="790" y="19.52000000000001" as="sourcePoint" />
            <mxPoint x="810" y="19.52000000000001" as="targetPoint" />
          </mxGeometry>
        </mxCell>
        <mxCell id="ZxSBbp-IphkqUdOfR0Vp-651" value="" style="endArrow=none;html=1;rounded=0;" edge="1" parent="1">
          <mxGeometry width="50" height="50" relative="1" as="geometry">
            <mxPoint x="170" y="160" as="sourcePoint" />
            <mxPoint x="170" y="120" as="targetPoint" />
          </mxGeometry>
        </mxCell>
        <mxCell id="ZxSBbp-IphkqUdOfR0Vp-652" value="" style="endArrow=none;html=1;rounded=0;" edge="1" parent="1">
          <mxGeometry width="50" height="50" relative="1" as="geometry">
            <mxPoint x="250" y="160" as="sourcePoint" />
            <mxPoint x="250" y="120" as="targetPoint" />
          </mxGeometry>
        </mxCell>
        <mxCell id="ZxSBbp-IphkqUdOfR0Vp-653" value="" style="endArrow=none;html=1;rounded=0;" edge="1" parent="1">
          <mxGeometry width="50" height="50" relative="1" as="geometry">
            <mxPoint x="170" y="120" as="sourcePoint" />
            <mxPoint x="250" y="120" as="targetPoint" />
          </mxGeometry>
        </mxCell>
        <mxCell id="ZxSBbp-IphkqUdOfR0Vp-654" value="" style="endArrow=none;html=1;rounded=0;" edge="1" parent="1">
          <mxGeometry width="50" height="50" relative="1" as="geometry">
            <mxPoint x="250" y="160" as="sourcePoint" />
            <mxPoint x="330" y="160" as="targetPoint" />
          </mxGeometry>
        </mxCell>
        <mxCell id="ZxSBbp-IphkqUdOfR0Vp-655" value="" style="endArrow=none;html=1;rounded=0;" edge="1" parent="1">
          <mxGeometry width="50" height="50" relative="1" as="geometry">
            <mxPoint x="330" y="160" as="sourcePoint" />
            <mxPoint x="330" y="120" as="targetPoint" />
          </mxGeometry>
        </mxCell>
        <mxCell id="ZxSBbp-IphkqUdOfR0Vp-656" value="" style="endArrow=none;html=1;rounded=0;" edge="1" parent="1">
          <mxGeometry width="50" height="50" relative="1" as="geometry">
            <mxPoint x="410" y="160" as="sourcePoint" />
            <mxPoint x="410" y="120" as="targetPoint" />
          </mxGeometry>
        </mxCell>
        <mxCell id="ZxSBbp-IphkqUdOfR0Vp-657" value="" style="endArrow=none;html=1;rounded=0;" edge="1" parent="1">
          <mxGeometry width="50" height="50" relative="1" as="geometry">
            <mxPoint x="330" y="120" as="sourcePoint" />
            <mxPoint x="410" y="120" as="targetPoint" />
          </mxGeometry>
        </mxCell>
        <mxCell id="ZxSBbp-IphkqUdOfR0Vp-658" value="" style="endArrow=none;html=1;rounded=0;" edge="1" parent="1">
          <mxGeometry width="50" height="50" relative="1" as="geometry">
            <mxPoint x="410" y="160" as="sourcePoint" />
            <mxPoint x="490" y="160" as="targetPoint" />
          </mxGeometry>
        </mxCell>
        <mxCell id="ZxSBbp-IphkqUdOfR0Vp-659" value="" style="endArrow=none;html=1;rounded=0;" edge="1" parent="1">
          <mxGeometry width="50" height="50" relative="1" as="geometry">
            <mxPoint x="490" y="160" as="sourcePoint" />
            <mxPoint x="490" y="120" as="targetPoint" />
          </mxGeometry>
        </mxCell>
        <mxCell id="ZxSBbp-IphkqUdOfR0Vp-660" value="" style="endArrow=none;html=1;rounded=0;" edge="1" parent="1">
          <mxGeometry width="50" height="50" relative="1" as="geometry">
            <mxPoint x="570" y="160" as="sourcePoint" />
            <mxPoint x="570" y="120" as="targetPoint" />
          </mxGeometry>
        </mxCell>
        <mxCell id="ZxSBbp-IphkqUdOfR0Vp-661" value="" style="endArrow=none;html=1;rounded=0;" edge="1" parent="1">
          <mxGeometry width="50" height="50" relative="1" as="geometry">
            <mxPoint x="490" y="120" as="sourcePoint" />
            <mxPoint x="570" y="120" as="targetPoint" />
          </mxGeometry>
        </mxCell>
        <mxCell id="ZxSBbp-IphkqUdOfR0Vp-662" value="" style="endArrow=none;html=1;rounded=0;" edge="1" parent="1">
          <mxGeometry width="50" height="50" relative="1" as="geometry">
            <mxPoint x="570" y="160" as="sourcePoint" />
            <mxPoint x="650" y="160" as="targetPoint" />
          </mxGeometry>
        </mxCell>
        <mxCell id="ZxSBbp-IphkqUdOfR0Vp-663" value="" style="endArrow=none;html=1;rounded=0;" edge="1" parent="1">
          <mxGeometry width="50" height="50" relative="1" as="geometry">
            <mxPoint x="650" y="160" as="sourcePoint" />
            <mxPoint x="650" y="120" as="targetPoint" />
          </mxGeometry>
        </mxCell>
        <mxCell id="ZxSBbp-IphkqUdOfR0Vp-664" value="" style="endArrow=none;html=1;rounded=0;" edge="1" parent="1">
          <mxGeometry width="50" height="50" relative="1" as="geometry">
            <mxPoint x="730" y="160" as="sourcePoint" />
            <mxPoint x="730" y="120" as="targetPoint" />
          </mxGeometry>
        </mxCell>
        <mxCell id="ZxSBbp-IphkqUdOfR0Vp-665" value="" style="endArrow=none;html=1;rounded=0;" edge="1" parent="1">
          <mxGeometry width="50" height="50" relative="1" as="geometry">
            <mxPoint x="650" y="120" as="sourcePoint" />
            <mxPoint x="730" y="120" as="targetPoint" />
          </mxGeometry>
        </mxCell>
        <mxCell id="ZxSBbp-IphkqUdOfR0Vp-666" value="" style="endArrow=none;html=1;rounded=0;" edge="1" parent="1">
          <mxGeometry width="50" height="50" relative="1" as="geometry">
            <mxPoint x="730" y="160" as="sourcePoint" />
            <mxPoint x="810" y="160" as="targetPoint" />
          </mxGeometry>
        </mxCell>
        <mxCell id="ZxSBbp-IphkqUdOfR0Vp-667" value="" style="endArrow=none;html=1;rounded=0;" edge="1" parent="1">
          <mxGeometry width="50" height="50" relative="1" as="geometry">
            <mxPoint x="170" y="220" as="sourcePoint" />
            <mxPoint x="170" y="180" as="targetPoint" />
          </mxGeometry>
        </mxCell>
        <mxCell id="ZxSBbp-IphkqUdOfR0Vp-668" value="" style="endArrow=none;html=1;rounded=0;" edge="1" parent="1">
          <mxGeometry width="50" height="50" relative="1" as="geometry">
            <mxPoint x="330" y="220" as="sourcePoint" />
            <mxPoint x="330" y="180" as="targetPoint" />
          </mxGeometry>
        </mxCell>
        <mxCell id="ZxSBbp-IphkqUdOfR0Vp-669" value="" style="endArrow=none;html=1;rounded=0;" edge="1" parent="1">
          <mxGeometry width="50" height="50" relative="1" as="geometry">
            <mxPoint x="170" y="180" as="sourcePoint" />
            <mxPoint x="330" y="180" as="targetPoint" />
          </mxGeometry>
        </mxCell>
        <mxCell id="ZxSBbp-IphkqUdOfR0Vp-670" value="" style="endArrow=none;html=1;rounded=0;" edge="1" parent="1">
          <mxGeometry width="50" height="50" relative="1" as="geometry">
            <mxPoint x="330" y="220" as="sourcePoint" />
            <mxPoint x="490" y="220" as="targetPoint" />
          </mxGeometry>
        </mxCell>
        <mxCell id="ZxSBbp-IphkqUdOfR0Vp-671" value="" style="endArrow=none;html=1;rounded=0;" edge="1" parent="1">
          <mxGeometry width="50" height="50" relative="1" as="geometry">
            <mxPoint x="490" y="220" as="sourcePoint" />
            <mxPoint x="490" y="180" as="targetPoint" />
          </mxGeometry>
        </mxCell>
        <mxCell id="ZxSBbp-IphkqUdOfR0Vp-672" value="" style="endArrow=none;html=1;rounded=0;" edge="1" parent="1">
          <mxGeometry width="50" height="50" relative="1" as="geometry">
            <mxPoint x="650" y="220" as="sourcePoint" />
            <mxPoint x="650" y="180" as="targetPoint" />
          </mxGeometry>
        </mxCell>
        <mxCell id="ZxSBbp-IphkqUdOfR0Vp-673" value="" style="endArrow=none;html=1;rounded=0;" edge="1" parent="1">
          <mxGeometry width="50" height="50" relative="1" as="geometry">
            <mxPoint x="490" y="180" as="sourcePoint" />
            <mxPoint x="650" y="180" as="targetPoint" />
          </mxGeometry>
        </mxCell>
        <mxCell id="ZxSBbp-IphkqUdOfR0Vp-674" value="" style="endArrow=none;html=1;rounded=0;" edge="1" parent="1">
          <mxGeometry width="50" height="50" relative="1" as="geometry">
            <mxPoint x="650" y="220" as="sourcePoint" />
            <mxPoint x="810" y="220" as="targetPoint" />
          </mxGeometry>
        </mxCell>
        <mxCell id="ZxSBbp-IphkqUdOfR0Vp-675" value="Clock" style="text;html=1;align=center;verticalAlign=middle;whiteSpace=wrap;rounded=0;" vertex="1" parent="1">
          <mxGeometry x="90" y="-20" width="40" height="40" as="geometry" />
        </mxCell>
        <mxCell id="ZxSBbp-IphkqUdOfR0Vp-676" value="/2" style="text;html=1;align=center;verticalAlign=middle;whiteSpace=wrap;rounded=0;" vertex="1" parent="1">
          <mxGeometry x="90" y="60.47999999999999" width="40" height="40" as="geometry" />
        </mxCell>
        <mxCell id="ZxSBbp-IphkqUdOfR0Vp-677" value="/4" style="text;html=1;align=center;verticalAlign=middle;whiteSpace=wrap;rounded=0;" vertex="1" parent="1">
          <mxGeometry x="90" y="120.48000000000002" width="40" height="40" as="geometry" />
        </mxCell>
        <mxCell id="ZxSBbp-IphkqUdOfR0Vp-678" value="/8" style="text;html=1;align=center;verticalAlign=middle;whiteSpace=wrap;rounded=0;" vertex="1" parent="1">
          <mxGeometry x="90" y="180.48000000000002" width="40" height="40" as="geometry" />
        </mxCell>
        <mxCell id="ZxSBbp-IphkqUdOfR0Vp-679" value="" style="endArrow=none;html=1;rounded=0;" edge="1" parent="1">
          <mxGeometry width="50" height="50" relative="1" as="geometry">
            <mxPoint x="170" y="320" as="sourcePoint" />
            <mxPoint x="170" y="280" as="targetPoint" />
          </mxGeometry>
        </mxCell>
        <mxCell id="ZxSBbp-IphkqUdOfR0Vp-680" value="" style="endArrow=none;html=1;rounded=0;" edge="1" parent="1">
          <mxGeometry width="50" height="50" relative="1" as="geometry">
            <mxPoint x="170" y="280" as="sourcePoint" />
            <mxPoint x="210" y="280" as="targetPoint" />
          </mxGeometry>
        </mxCell>
        <mxCell id="ZxSBbp-IphkqUdOfR0Vp-681" value="" style="endArrow=none;html=1;rounded=0;" edge="1" parent="1">
          <mxGeometry width="50" height="50" relative="1" as="geometry">
            <mxPoint x="210" y="320" as="sourcePoint" />
            <mxPoint x="210" y="280" as="targetPoint" />
          </mxGeometry>
        </mxCell>
        <mxCell id="ZxSBbp-IphkqUdOfR0Vp-682" value="" style="endArrow=none;html=1;rounded=0;" edge="1" parent="1">
          <mxGeometry width="50" height="50" relative="1" as="geometry">
            <mxPoint x="210" y="320" as="sourcePoint" />
            <mxPoint x="290" y="320" as="targetPoint" />
          </mxGeometry>
        </mxCell>
        <mxCell id="ZxSBbp-IphkqUdOfR0Vp-683" value="" style="endArrow=none;html=1;rounded=0;" edge="1" parent="1">
          <mxGeometry width="50" height="50" relative="1" as="geometry">
            <mxPoint x="290" y="320" as="sourcePoint" />
            <mxPoint x="290" y="280" as="targetPoint" />
          </mxGeometry>
        </mxCell>
        <mxCell id="ZxSBbp-IphkqUdOfR0Vp-684" value="" style="endArrow=none;html=1;rounded=0;" edge="1" parent="1">
          <mxGeometry width="50" height="50" relative="1" as="geometry">
            <mxPoint x="290" y="280" as="sourcePoint" />
            <mxPoint x="330" y="280" as="targetPoint" />
          </mxGeometry>
        </mxCell>
        <mxCell id="ZxSBbp-IphkqUdOfR0Vp-685" value="" style="endArrow=none;html=1;rounded=0;" edge="1" parent="1">
          <mxGeometry width="50" height="50" relative="1" as="geometry">
            <mxPoint x="330" y="320" as="sourcePoint" />
            <mxPoint x="330" y="280" as="targetPoint" />
          </mxGeometry>
        </mxCell>
        <mxCell id="ZxSBbp-IphkqUdOfR0Vp-686" value="" style="endArrow=none;html=1;rounded=0;" edge="1" parent="1">
          <mxGeometry width="50" height="50" relative="1" as="geometry">
            <mxPoint x="330" y="320" as="sourcePoint" />
            <mxPoint x="410" y="320" as="targetPoint" />
          </mxGeometry>
        </mxCell>
        <mxCell id="ZxSBbp-IphkqUdOfR0Vp-687" value="" style="endArrow=none;html=1;rounded=0;" edge="1" parent="1">
          <mxGeometry width="50" height="50" relative="1" as="geometry">
            <mxPoint x="410" y="320" as="sourcePoint" />
            <mxPoint x="410" y="280" as="targetPoint" />
          </mxGeometry>
        </mxCell>
        <mxCell id="ZxSBbp-IphkqUdOfR0Vp-688" value="" style="endArrow=none;html=1;rounded=0;" edge="1" parent="1">
          <mxGeometry width="50" height="50" relative="1" as="geometry">
            <mxPoint x="410" y="280" as="sourcePoint" />
            <mxPoint x="450" y="280" as="targetPoint" />
          </mxGeometry>
        </mxCell>
        <mxCell id="ZxSBbp-IphkqUdOfR0Vp-689" value="" style="endArrow=none;html=1;rounded=0;" edge="1" parent="1">
          <mxGeometry width="50" height="50" relative="1" as="geometry">
            <mxPoint x="450" y="320" as="sourcePoint" />
            <mxPoint x="450" y="280" as="targetPoint" />
          </mxGeometry>
        </mxCell>
        <mxCell id="ZxSBbp-IphkqUdOfR0Vp-690" value="" style="endArrow=none;html=1;rounded=0;" edge="1" parent="1">
          <mxGeometry width="50" height="50" relative="1" as="geometry">
            <mxPoint x="450" y="320" as="sourcePoint" />
            <mxPoint x="530" y="320" as="targetPoint" />
          </mxGeometry>
        </mxCell>
        <mxCell id="ZxSBbp-IphkqUdOfR0Vp-691" value="" style="endArrow=none;html=1;rounded=0;" edge="1" parent="1">
          <mxGeometry width="50" height="50" relative="1" as="geometry">
            <mxPoint x="130" y="19.52000000000001" as="sourcePoint" />
            <mxPoint x="170" y="19.52000000000001" as="targetPoint" />
          </mxGeometry>
        </mxCell>
        <mxCell id="ZxSBbp-IphkqUdOfR0Vp-692" value="" style="endArrow=none;html=1;rounded=0;" edge="1" parent="1">
          <mxGeometry width="50" height="50" relative="1" as="geometry">
            <mxPoint x="130" y="100" as="sourcePoint" />
            <mxPoint x="170" y="100" as="targetPoint" />
          </mxGeometry>
        </mxCell>
        <mxCell id="ZxSBbp-IphkqUdOfR0Vp-693" value="" style="endArrow=none;html=1;rounded=0;" edge="1" parent="1">
          <mxGeometry width="50" height="50" relative="1" as="geometry">
            <mxPoint x="130" y="160" as="sourcePoint" />
            <mxPoint x="170" y="160" as="targetPoint" />
          </mxGeometry>
        </mxCell>
        <mxCell id="ZxSBbp-IphkqUdOfR0Vp-694" value="" style="endArrow=none;html=1;rounded=0;" edge="1" parent="1">
          <mxGeometry width="50" height="50" relative="1" as="geometry">
            <mxPoint x="130" y="220" as="sourcePoint" />
            <mxPoint x="170" y="220" as="targetPoint" />
          </mxGeometry>
        </mxCell>
        <mxCell id="ZxSBbp-IphkqUdOfR0Vp-695" value="" style="endArrow=none;html=1;rounded=0;" edge="1" parent="1">
          <mxGeometry width="50" height="50" relative="1" as="geometry">
            <mxPoint x="130" y="320" as="sourcePoint" />
            <mxPoint x="170" y="320" as="targetPoint" />
          </mxGeometry>
        </mxCell>
        <mxCell id="ZxSBbp-IphkqUdOfR0Vp-696" value="/3" style="text;html=1;align=center;verticalAlign=middle;whiteSpace=wrap;rounded=0;" vertex="1" parent="1">
          <mxGeometry x="90" y="280.48" width="40" height="40" as="geometry" />
        </mxCell>
        <mxCell id="ZxSBbp-IphkqUdOfR0Vp-697" value="" style="endArrow=none;html=1;rounded=0;" edge="1" parent="1">
          <mxGeometry width="50" height="50" relative="1" as="geometry">
            <mxPoint x="530" y="320" as="sourcePoint" />
            <mxPoint x="530" y="280" as="targetPoint" />
          </mxGeometry>
        </mxCell>
        <mxCell id="ZxSBbp-IphkqUdOfR0Vp-698" value="" style="endArrow=none;html=1;rounded=0;" edge="1" parent="1">
          <mxGeometry width="50" height="50" relative="1" as="geometry">
            <mxPoint x="530" y="280" as="sourcePoint" />
            <mxPoint x="570" y="280" as="targetPoint" />
          </mxGeometry>
        </mxCell>
        <mxCell id="ZxSBbp-IphkqUdOfR0Vp-699" value="" style="endArrow=none;html=1;rounded=0;" edge="1" parent="1">
          <mxGeometry width="50" height="50" relative="1" as="geometry">
            <mxPoint x="570" y="320" as="sourcePoint" />
            <mxPoint x="570" y="280" as="targetPoint" />
          </mxGeometry>
        </mxCell>
        <mxCell id="ZxSBbp-IphkqUdOfR0Vp-700" value="" style="endArrow=none;html=1;rounded=0;" edge="1" parent="1">
          <mxGeometry width="50" height="50" relative="1" as="geometry">
            <mxPoint x="570" y="320" as="sourcePoint" />
            <mxPoint x="650" y="320" as="targetPoint" />
          </mxGeometry>
        </mxCell>
        <mxCell id="ZxSBbp-IphkqUdOfR0Vp-701" value="" style="endArrow=none;html=1;rounded=0;" edge="1" parent="1">
          <mxGeometry width="50" height="50" relative="1" as="geometry">
            <mxPoint x="650" y="320" as="sourcePoint" />
            <mxPoint x="650" y="280" as="targetPoint" />
          </mxGeometry>
        </mxCell>
        <mxCell id="ZxSBbp-IphkqUdOfR0Vp-702" value="" style="endArrow=none;html=1;rounded=0;" edge="1" parent="1">
          <mxGeometry width="50" height="50" relative="1" as="geometry">
            <mxPoint x="650" y="280" as="sourcePoint" />
            <mxPoint x="690" y="280" as="targetPoint" />
          </mxGeometry>
        </mxCell>
        <mxCell id="ZxSBbp-IphkqUdOfR0Vp-703" value="" style="endArrow=none;html=1;rounded=0;" edge="1" parent="1">
          <mxGeometry width="50" height="50" relative="1" as="geometry">
            <mxPoint x="690" y="320" as="sourcePoint" />
            <mxPoint x="690" y="280" as="targetPoint" />
          </mxGeometry>
        </mxCell>
        <mxCell id="ZxSBbp-IphkqUdOfR0Vp-704" value="" style="endArrow=none;html=1;rounded=0;" edge="1" parent="1">
          <mxGeometry width="50" height="50" relative="1" as="geometry">
            <mxPoint x="690" y="320" as="sourcePoint" />
            <mxPoint x="770" y="320" as="targetPoint" />
          </mxGeometry>
        </mxCell>
        <mxCell id="ZxSBbp-IphkqUdOfR0Vp-705" value="" style="endArrow=none;html=1;rounded=0;" edge="1" parent="1">
          <mxGeometry width="50" height="50" relative="1" as="geometry">
            <mxPoint x="770" y="320" as="sourcePoint" />
            <mxPoint x="770" y="280" as="targetPoint" />
          </mxGeometry>
        </mxCell>
        <mxCell id="ZxSBbp-IphkqUdOfR0Vp-706" value="" style="endArrow=none;html=1;rounded=0;" edge="1" parent="1">
          <mxGeometry width="50" height="50" relative="1" as="geometry">
            <mxPoint x="770" y="280" as="sourcePoint" />
            <mxPoint x="810" y="280" as="targetPoint" />
          </mxGeometry>
        </mxCell>
        <mxCell id="ZxSBbp-IphkqUdOfR0Vp-707" value="" style="endArrow=none;html=1;rounded=0;" edge="1" parent="1">
          <mxGeometry width="50" height="50" relative="1" as="geometry">
            <mxPoint x="810" y="320" as="sourcePoint" />
            <mxPoint x="810" y="280" as="targetPoint" />
          </mxGeometry>
        </mxCell>
        <mxCell id="ZxSBbp-IphkqUdOfR0Vp-708" value="" style="endArrow=none;html=1;rounded=0;" edge="1" parent="1">
          <mxGeometry width="50" height="50" relative="1" as="geometry">
            <mxPoint x="170" y="380" as="sourcePoint" />
            <mxPoint x="170" y="340" as="targetPoint" />
          </mxGeometry>
        </mxCell>
        <mxCell id="ZxSBbp-IphkqUdOfR0Vp-709" value="" style="endArrow=none;html=1;rounded=0;" edge="1" parent="1">
          <mxGeometry width="50" height="50" relative="1" as="geometry">
            <mxPoint x="250" y="380" as="sourcePoint" />
            <mxPoint x="250" y="340" as="targetPoint" />
          </mxGeometry>
        </mxCell>
        <mxCell id="ZxSBbp-IphkqUdOfR0Vp-710" value="" style="endArrow=none;html=1;rounded=0;" edge="1" parent="1">
          <mxGeometry width="50" height="50" relative="1" as="geometry">
            <mxPoint x="170" y="340" as="sourcePoint" />
            <mxPoint x="250" y="340" as="targetPoint" />
          </mxGeometry>
        </mxCell>
        <mxCell id="ZxSBbp-IphkqUdOfR0Vp-711" value="" style="endArrow=none;html=1;rounded=0;" edge="1" parent="1">
          <mxGeometry width="50" height="50" relative="1" as="geometry">
            <mxPoint x="130" y="380" as="sourcePoint" />
            <mxPoint x="170" y="380" as="targetPoint" />
          </mxGeometry>
        </mxCell>
        <mxCell id="ZxSBbp-IphkqUdOfR0Vp-712" value="" style="endArrow=none;html=1;rounded=0;" edge="1" parent="1">
          <mxGeometry width="50" height="50" relative="1" as="geometry">
            <mxPoint x="250" y="380" as="sourcePoint" />
            <mxPoint x="370" y="380" as="targetPoint" />
          </mxGeometry>
        </mxCell>
        <mxCell id="ZxSBbp-IphkqUdOfR0Vp-713" value="" style="endArrow=none;html=1;rounded=0;" edge="1" parent="1">
          <mxGeometry width="50" height="50" relative="1" as="geometry">
            <mxPoint x="370" y="380" as="sourcePoint" />
            <mxPoint x="370" y="340" as="targetPoint" />
          </mxGeometry>
        </mxCell>
        <mxCell id="ZxSBbp-IphkqUdOfR0Vp-714" value="" style="endArrow=none;html=1;rounded=0;" edge="1" parent="1">
          <mxGeometry width="50" height="50" relative="1" as="geometry">
            <mxPoint x="450" y="380" as="sourcePoint" />
            <mxPoint x="450" y="340" as="targetPoint" />
          </mxGeometry>
        </mxCell>
        <mxCell id="ZxSBbp-IphkqUdOfR0Vp-715" value="" style="endArrow=none;html=1;rounded=0;" edge="1" parent="1">
          <mxGeometry width="50" height="50" relative="1" as="geometry">
            <mxPoint x="370" y="340" as="sourcePoint" />
            <mxPoint x="450" y="340" as="targetPoint" />
          </mxGeometry>
        </mxCell>
        <mxCell id="ZxSBbp-IphkqUdOfR0Vp-716" value="" style="endArrow=none;html=1;rounded=0;" edge="1" parent="1">
          <mxGeometry width="50" height="50" relative="1" as="geometry">
            <mxPoint x="450" y="380" as="sourcePoint" />
            <mxPoint x="570" y="380" as="targetPoint" />
          </mxGeometry>
        </mxCell>
        <mxCell id="ZxSBbp-IphkqUdOfR0Vp-717" value="" style="endArrow=none;html=1;rounded=0;" edge="1" parent="1">
          <mxGeometry width="50" height="50" relative="1" as="geometry">
            <mxPoint x="570" y="380" as="sourcePoint" />
            <mxPoint x="570" y="340" as="targetPoint" />
          </mxGeometry>
        </mxCell>
        <mxCell id="ZxSBbp-IphkqUdOfR0Vp-718" value="" style="endArrow=none;html=1;rounded=0;" edge="1" parent="1">
          <mxGeometry width="50" height="50" relative="1" as="geometry">
            <mxPoint x="650" y="380" as="sourcePoint" />
            <mxPoint x="650" y="340" as="targetPoint" />
          </mxGeometry>
        </mxCell>
        <mxCell id="ZxSBbp-IphkqUdOfR0Vp-719" value="" style="endArrow=none;html=1;rounded=0;" edge="1" parent="1">
          <mxGeometry width="50" height="50" relative="1" as="geometry">
            <mxPoint x="570" y="340" as="sourcePoint" />
            <mxPoint x="650" y="340" as="targetPoint" />
          </mxGeometry>
        </mxCell>
        <mxCell id="ZxSBbp-IphkqUdOfR0Vp-720" value="" style="endArrow=none;html=1;rounded=0;" edge="1" parent="1">
          <mxGeometry width="50" height="50" relative="1" as="geometry">
            <mxPoint x="650" y="380" as="sourcePoint" />
            <mxPoint x="770" y="380" as="targetPoint" />
          </mxGeometry>
        </mxCell>
        <mxCell id="ZxSBbp-IphkqUdOfR0Vp-721" value="" style="endArrow=none;html=1;rounded=0;" edge="1" parent="1">
          <mxGeometry width="50" height="50" relative="1" as="geometry">
            <mxPoint x="770" y="380" as="sourcePoint" />
            <mxPoint x="770" y="340" as="targetPoint" />
          </mxGeometry>
        </mxCell>
        <mxCell id="ZxSBbp-IphkqUdOfR0Vp-722" value="" style="endArrow=none;html=1;rounded=0;" edge="1" parent="1">
          <mxGeometry width="50" height="50" relative="1" as="geometry">
            <mxPoint x="770" y="340" as="sourcePoint" />
            <mxPoint x="810" y="340" as="targetPoint" />
          </mxGeometry>
        </mxCell>
        <mxCell id="ZxSBbp-IphkqUdOfR0Vp-723" value="/5" style="text;html=1;align=center;verticalAlign=middle;whiteSpace=wrap;rounded=0;" vertex="1" parent="1">
          <mxGeometry x="90" y="340.48" width="40" height="40" as="geometry" />
        </mxCell>
        <mxCell id="ZxSBbp-IphkqUdOfR0Vp-724" value="奇数" style="text;html=1;align=center;verticalAlign=middle;whiteSpace=wrap;rounded=0;" vertex="1" parent="1">
          <mxGeometry x="90" y="240.48000000000002" width="40" height="40" as="geometry" />
        </mxCell>
        <mxCell id="ZxSBbp-IphkqUdOfR0Vp-725" value="ON" style="text;html=1;align=center;verticalAlign=middle;whiteSpace=wrap;rounded=0;" vertex="1" parent="1">
          <mxGeometry x="130" y="-30" width="40" height="20" as="geometry" />
        </mxCell>
        <mxCell id="ZxSBbp-IphkqUdOfR0Vp-726" value="OFF" style="text;html=1;align=center;verticalAlign=middle;whiteSpace=wrap;rounded=0;" vertex="1" parent="1">
          <mxGeometry x="130" width="40" height="20" as="geometry" />
        </mxCell>
        <mxCell id="ZxSBbp-IphkqUdOfR0Vp-727" value="偶数" style="text;html=1;align=center;verticalAlign=middle;whiteSpace=wrap;rounded=0;" vertex="1" parent="1">
          <mxGeometry x="90" y="20" width="40" height="40" as="geometry" />
        </mxCell>
        <mxCell id="ZxSBbp-IphkqUdOfR0Vp-728" value="" style="endArrow=none;dashed=1;html=1;dashPattern=1 3;strokeWidth=2;rounded=0;" edge="1" parent="1">
          <mxGeometry width="50" height="50" relative="1" as="geometry">
            <mxPoint x="170" y="400" as="sourcePoint" />
            <mxPoint x="170" y="-40" as="targetPoint" />
          </mxGeometry>
        </mxCell>
        <mxCell id="ZxSBbp-IphkqUdOfR0Vp-729" value="" style="endArrow=none;dashed=1;html=1;dashPattern=1 3;strokeWidth=2;rounded=0;" edge="1" parent="1">
          <mxGeometry width="50" height="50" relative="1" as="geometry">
            <mxPoint x="210" y="400" as="sourcePoint" />
            <mxPoint x="210" y="-40" as="targetPoint" />
          </mxGeometry>
        </mxCell>
        <mxCell id="ZxSBbp-IphkqUdOfR0Vp-730" value="" style="endArrow=none;dashed=1;html=1;dashPattern=1 3;strokeWidth=2;rounded=0;" edge="1" parent="1">
          <mxGeometry width="50" height="50" relative="1" as="geometry">
            <mxPoint x="250" y="400" as="sourcePoint" />
            <mxPoint x="250" y="-40" as="targetPoint" />
          </mxGeometry>
        </mxCell>
        <mxCell id="ZxSBbp-IphkqUdOfR0Vp-731" value="" style="endArrow=none;dashed=1;html=1;dashPattern=1 3;strokeWidth=2;rounded=0;" edge="1" parent="1">
          <mxGeometry width="50" height="50" relative="1" as="geometry">
            <mxPoint x="290" y="400" as="sourcePoint" />
            <mxPoint x="290" y="-40" as="targetPoint" />
          </mxGeometry>
        </mxCell>
        <mxCell id="ZxSBbp-IphkqUdOfR0Vp-732" value="" style="endArrow=none;dashed=1;html=1;dashPattern=1 3;strokeWidth=2;rounded=0;" edge="1" parent="1">
          <mxGeometry width="50" height="50" relative="1" as="geometry">
            <mxPoint x="330" y="400" as="sourcePoint" />
            <mxPoint x="330" y="-40" as="targetPoint" />
          </mxGeometry>
        </mxCell>
        <mxCell id="ZxSBbp-IphkqUdOfR0Vp-733" value="" style="endArrow=none;dashed=1;html=1;dashPattern=1 3;strokeWidth=2;rounded=0;" edge="1" parent="1">
          <mxGeometry width="50" height="50" relative="1" as="geometry">
            <mxPoint x="370" y="400" as="sourcePoint" />
            <mxPoint x="370" y="-40" as="targetPoint" />
          </mxGeometry>
        </mxCell>
        <mxCell id="ZxSBbp-IphkqUdOfR0Vp-734" value="" style="endArrow=none;dashed=1;html=1;dashPattern=1 3;strokeWidth=2;rounded=0;" edge="1" parent="1">
          <mxGeometry width="50" height="50" relative="1" as="geometry">
            <mxPoint x="410" y="400" as="sourcePoint" />
            <mxPoint x="410" y="-40" as="targetPoint" />
          </mxGeometry>
        </mxCell>
        <mxCell id="ZxSBbp-IphkqUdOfR0Vp-735" value="" style="endArrow=none;dashed=1;html=1;dashPattern=1 3;strokeWidth=2;rounded=0;" edge="1" parent="1">
          <mxGeometry width="50" height="50" relative="1" as="geometry">
            <mxPoint x="450" y="400" as="sourcePoint" />
            <mxPoint x="450" y="-40" as="targetPoint" />
          </mxGeometry>
        </mxCell>
        <mxCell id="ZxSBbp-IphkqUdOfR0Vp-736" value="" style="endArrow=none;dashed=1;html=1;dashPattern=1 3;strokeWidth=2;rounded=0;" edge="1" parent="1">
          <mxGeometry width="50" height="50" relative="1" as="geometry">
            <mxPoint x="490" y="400" as="sourcePoint" />
            <mxPoint x="490" y="-40" as="targetPoint" />
          </mxGeometry>
        </mxCell>
        <mxCell id="ZxSBbp-IphkqUdOfR0Vp-737" value="" style="endArrow=none;dashed=1;html=1;dashPattern=1 3;strokeWidth=2;rounded=0;" edge="1" parent="1">
          <mxGeometry width="50" height="50" relative="1" as="geometry">
            <mxPoint x="530" y="400" as="sourcePoint" />
            <mxPoint x="530" y="-40" as="targetPoint" />
          </mxGeometry>
        </mxCell>
        <mxCell id="ZxSBbp-IphkqUdOfR0Vp-738" value="" style="endArrow=none;dashed=1;html=1;dashPattern=1 3;strokeWidth=2;rounded=0;" edge="1" parent="1">
          <mxGeometry width="50" height="50" relative="1" as="geometry">
            <mxPoint x="570" y="400" as="sourcePoint" />
            <mxPoint x="570" y="-40" as="targetPoint" />
          </mxGeometry>
        </mxCell>
        <mxCell id="ZxSBbp-IphkqUdOfR0Vp-739" value="" style="endArrow=none;dashed=1;html=1;dashPattern=1 3;strokeWidth=2;rounded=0;" edge="1" parent="1">
          <mxGeometry width="50" height="50" relative="1" as="geometry">
            <mxPoint x="610" y="400" as="sourcePoint" />
            <mxPoint x="610" y="-40" as="targetPoint" />
          </mxGeometry>
        </mxCell>
        <mxCell id="ZxSBbp-IphkqUdOfR0Vp-740" value="" style="endArrow=none;dashed=1;html=1;dashPattern=1 3;strokeWidth=2;rounded=0;" edge="1" parent="1">
          <mxGeometry width="50" height="50" relative="1" as="geometry">
            <mxPoint x="650" y="400" as="sourcePoint" />
            <mxPoint x="650" y="-40" as="targetPoint" />
          </mxGeometry>
        </mxCell>
        <mxCell id="ZxSBbp-IphkqUdOfR0Vp-741" value="" style="endArrow=none;dashed=1;html=1;dashPattern=1 3;strokeWidth=2;rounded=0;" edge="1" parent="1">
          <mxGeometry width="50" height="50" relative="1" as="geometry">
            <mxPoint x="690" y="400" as="sourcePoint" />
            <mxPoint x="690" y="-40" as="targetPoint" />
          </mxGeometry>
        </mxCell>
        <mxCell id="ZxSBbp-IphkqUdOfR0Vp-742" value="" style="endArrow=none;dashed=1;html=1;dashPattern=1 3;strokeWidth=2;rounded=0;" edge="1" parent="1">
          <mxGeometry width="50" height="50" relative="1" as="geometry">
            <mxPoint x="730" y="400" as="sourcePoint" />
            <mxPoint x="730" y="-40" as="targetPoint" />
          </mxGeometry>
        </mxCell>
        <mxCell id="ZxSBbp-IphkqUdOfR0Vp-743" value="" style="endArrow=none;dashed=1;html=1;dashPattern=1 3;strokeWidth=2;rounded=0;" edge="1" parent="1">
          <mxGeometry width="50" height="50" relative="1" as="geometry">
            <mxPoint x="770" y="400" as="sourcePoint" />
            <mxPoint x="770" y="-40" as="targetPoint" />
          </mxGeometry>
        </mxCell>
      </root>
    </mxGraphModel>
  </diagram>
</mxfile>
